<?xml version="1.0" standalone="no"?><!DOCTYPE svg PUBLIC "-//W3C//DTD SVG 1.1//EN" "http://www.w3.org/Graphics/SVG/1.1/DTD/svg11.dtd"><svg t="1683202734067" class="icon" viewBox="0 0 1024 1024" version="1.1" xmlns="http://www.w3.org/2000/svg" p-id="9455" xmlns:xlink="http://www.w3.org/1999/xlink" width="200" height="200"><path d="M741.831111 803.271111c-45.511111 0-68.266667-100.124444-72.817778-120.604444 0 0-40.96-131.982222-95.573333-309.475556-31.857778-102.4-50.062222-118.328889-59.164444-118.328889-36.408889 2.275556-84.195556 204.8-113.777778 339.057778-29.582222 134.257778-61.44 197.973333-97.848889 197.973333-56.888889-2.275556-88.746667-159.288889-102.4-254.862222-20.48-136.533333-31.857778-172.942222-34.133333-184.32-4.551111-2.275556-6.826667-4.551111-6.826667-9.102222s4.551111-9.102222 9.102222-9.102222c9.102222 0 18.204444 0 47.786667 200.248889 25.031111 163.84 61.44 238.933333 86.471111 238.933333 13.653333 0 43.235556-15.928889 81.92-184.32 56.888889-248.035556 88.746667-352.711111 129.706667-352.711111 27.306667 0 50.062222 38.684444 77.368888 129.706666 54.613333 177.493333 95.573333 307.2 95.573334 309.475556 9.102222 45.511111 34.133333 106.951111 56.888889 106.951111 9.102222 0 36.408889-13.653333 70.542222-141.084444 52.337778-195.697778 59.164444-227.555556 63.715555-245.76 2.275556-11.377778 4.551111-20.48 13.653334-54.613334 2.275556-4.551111 6.826667-6.826667 11.377778-6.826666 4.551111 2.275556 6.826667 6.826667 6.826666 11.377777-9.102222 34.133333-11.377778 40.96-13.653333 52.337778-4.551111 20.48-11.377778 50.062222-63.715556 248.035556-31.857778 109.226667-59.164444 157.013333-91.022222 157.013333z" fill="#ffffff" p-id="9456"></path><path d="M967.111111 794.168889c-4.551111 0-11.377778-2.275556-15.928889-6.826667-65.991111-61.44-72.817778-84.195556-113.777778-261.688889-11.377778-45.511111-22.755556-100.124444-38.684444-170.666666-31.857778-134.257778-56.888889-145.635556-56.888889-145.635556-11.377778 4.551111-31.857778 56.888889-40.96 104.675556 0 0-27.306667 150.186667-95.573333 341.333333-29.582222 86.471111-54.613333 120.604444-88.746667 118.328889-43.235556-2.275556-81.92-63.715556-145.635555-364.088889-36.408889-179.768889-65.991111-191.146667-68.266667-191.146667-9.102222 2.275556-45.511111 56.888889-72.817778 252.586667-36.408889 254.862222-159.288889 302.648889-163.84 304.924444-11.377778 4.551111-25.031111-2.275556-29.582222-13.653333-4.551111-11.377778 2.275556-25.031111 13.653333-29.582222 2.275556 0 104.675556-45.511111 136.533334-268.515556 38.684444-286.72 95.573333-288.995556 113.777777-288.995555 47.786667 0 79.644444 65.991111 113.777778 227.555555 59.164444 284.444444 93.297778 325.404444 104.675556 327.68 0 0 15.928889-6.826667 43.235555-86.471111 65.991111-188.871111 95.573333-334.506667 95.573334-336.782222 9.102222-43.235556 34.133333-141.084444 86.471111-143.36 40.96 0 70.542222 52.337778 102.4 179.768889 15.928889 70.542222 29.582222 125.155556 40.96 170.666667 40.96 175.217778 43.235556 186.595556 97.848889 238.933333 9.102222 9.102222 9.102222 22.755556 2.275555 31.857778-9.102222 6.826667-13.653333 9.102222-20.48 9.102222z" p-id="9457" fill="#ffffff"></path></svg>