<?xml version="1.0" standalone="no"?><!DOCTYPE svg PUBLIC "-//W3C//DTD SVG 1.1//EN" "http://www.w3.org/Graphics/SVG/1.1/DTD/svg11.dtd"><svg t="1693397417624" class="icon" viewBox="0 0 1024 1024" version="1.1" xmlns="http://www.w3.org/2000/svg" p-id="4083" xmlns:xlink="http://www.w3.org/1999/xlink" width="200" height="200"><path d="M940.8 339.2h-57.6-6.4v-51.2c0-44.8-38.4-83.2-83.2-83.2H441.6c-12.8-6.4-25.6-6.4-38.4-12.8L288 121.6c-19.2-12.8-44.8-25.6-70.4-25.6h-128C38.4 96 0 140.8 0 185.6v512c0 44.8 38.4 83.2 83.2 83.2h64v57.6c0 44.8 38.4 83.2 83.2 83.2h704c44.8 0 83.2-38.4 83.2-83.2V428.8c6.4-44.8-32-89.6-76.8-89.6zM64 697.6v-512c0-12.8 12.8-19.2 19.2-19.2h128c12.8 0 25.6 6.4 38.4 12.8l115.2 70.4c25.6 6.4 51.2 12.8 76.8 12.8h345.6c12.8 0 19.2 12.8 19.2 19.2v409.6c0 12.8-12.8 19.2-19.2 19.2h-704c-6.4 6.4-19.2 0-19.2-12.8z m896 140.8c0 12.8-12.8 19.2-19.2 19.2h-704c-12.8 0-19.2-12.8-19.2-19.2v-57.6h576c44.8 0 83.2-38.4 83.2-83.2V403.2h64c12.8 0 19.2 12.8 19.2 19.2v416z" p-id="4084" fill="#ffffff"></path><path d="M684.8 486.4c0-6.4-6.4-12.8-6.4-19.2L537.6 332.8c-12.8-12.8-32-12.8-44.8 0-12.8 12.8-12.8 32 0 44.8L576 460.8H224c-19.2 0-32 12.8-32 32s12.8 32 32 32H576L492.8 601.6c-12.8 12.8-12.8 32 0 44.8 6.4 6.4 12.8 6.4 25.6 6.4 6.4 0 19.2 0 25.6-6.4L678.4 512s6.4-6.4 6.4-12.8v-12.8z" p-id="4085" fill="#ffffff"></path></svg>