<?xml version="1.0" standalone="no"?><!DOCTYPE svg PUBLIC "-//W3C//DTD SVG 1.1//EN" "http://www.w3.org/Graphics/SVG/1.1/DTD/svg11.dtd"><svg t="1683202661005" class="icon" viewBox="0 0 1024 1024" version="1.1" xmlns="http://www.w3.org/2000/svg" p-id="8868" xmlns:xlink="http://www.w3.org/1999/xlink" width="200" height="200"><path d="M845.18 598V76.54a10 10 0 0 0-10-10H104.11a10 10 0 0 0-10 10v869.92a10 10 0 0 0 10 10h625.26c-1.64 0-3.28 0-4.91-0.06q2.44 0.06 4.92 0.06c109.31 0 197.93-88.62 197.93-197.93A197.67 197.67 0 0 0 845.18 598zM144.11 906.46V116.54h651.07v455.27a197.73 197.73 0 0 0-65.8-11.21c-109.32 0-197.93 88.61-197.93 197.93a197.43 197.43 0 0 0 66.44 147.93zM834 863.13a147.93 147.93 0 1 1 43.33-104.6A147 147 0 0 1 834 863.13z" p-id="8869" fill="#ffffff"></path><path d="M437.77 270.14h288.07v50H437.77zM268.07 308.14l-36.95-36.94-35.35 35.35 72.3 72.31 114.4-114.41-35.35-35.36-79.05 79.05zM437.77 455.12h138.34v50H437.77zM268.07 493.13l-36.95-36.94-35.35 35.35 72.3 72.3 114.4-114.4-35.35-35.36-79.05 79.05zM700.65 720.53h79.36v-50H650.65v90.62h50v-40.62zM781.4 796.53H652.36v50H831.4v-98.19h-50v48.19z" p-id="8870" fill="#ffffff"></path></svg>