<?xml version="1.0" standalone="no"?><!DOCTYPE svg PUBLIC "-//W3C//DTD SVG 1.1//EN" "http://www.w3.org/Graphics/SVG/1.1/DTD/svg11.dtd"><svg t="1693397480630" class="icon" viewBox="0 0 1024 1024" version="1.1" xmlns="http://www.w3.org/2000/svg" p-id="5223" xmlns:xlink="http://www.w3.org/1999/xlink" width="200" height="200"><path d="M512.001023 64.644299c-247.041466 0-447.307605 200.182228-447.307605 447.115224 0 246.935042 200.26614 447.113177 447.307605 447.113177 247.039419 0 447.305559-200.178135 447.305559-447.113177C959.306582 264.826528 759.040443 64.644299 512.001023 64.644299L512.001023 64.644299zM583.825862 398.586974l87.354534 0 0 30.450523 0 199.99394 0 0.029676-87.354534 0L583.825862 398.586974 583.825862 398.586974zM467.407386 307.205731l87.354534 0 0 33.648354L554.761919 629.02939l0 0.029676-55.493895 0 0-0.029676-31.860638 0L467.407386 307.205731 467.407386 307.205731zM351.020632 456.292234l87.318718 0 0 32.745798L438.33935 629.02939l0 0.029676-55.491849 0 0-0.029676-31.827893 0L351.019609 456.292234 351.020632 456.292234zM729.373773 688.13044l0 28.182876L323.289034 716.313316l-28.66383 0 0-56.80168 434.748568 0L729.373773 688.13044 729.373773 688.13044z" fill="#ffffff" p-id="5224"></path></svg>